<svg xmlns="http://www.w3.org/2000/svg" xmlns:xlink="http://www.w3.org/1999/xlink" version="1.1" width="1000" height="1000" viewBox="0 0 1000 1000" xml:space="preserve">
<desc>Created with Fabric.js 3.5.0</desc>
<defs>
</defs>
<rect x="0" y="0" width="100%" height="100%" fill="#ffffff"/>
<g transform="matrix(1 0 0 1 502.1554 506.2882)" style="" id="255883">
		
<path xml:space="preserve" font-family="Baloo" font-size="187" font-style="normal" font-weight="normal" style="stroke: rgb(98,91,167); stroke-width: 9; stroke-dasharray: none; stroke-linecap: butt; stroke-dashoffset: 0; stroke-linejoin: miter; stroke-miterlimit: 4; is-custom-font: none; font-file-url: none; fill: rgb(98,91,167); fill-rule: nonzero; opacity: 1; white-space: pre;" d="M-409.47 16.29L-417.32 13.64Q-425.54 10.81-432.25 7.93Q-438.96 5.05-443.85 0.95Q-448.73-3.16-451.43-8.87Q-454.12-14.58-454.12-22.79L-454.12-22.79Q-454.12-38.68-441.89-48.22Q-429.65-57.77-407.55-57.77L-407.55-57.77Q-399.52-57.77-392.63-56.62Q-385.73-55.48-380.76-53.15Q-375.78-50.83-372.99-47.17Q-370.21-43.52-370.21-38.68L-370.21-38.68Q-370.21-33.84-372.45-30.37Q-374.68-26.90-377.79-24.44L-377.79-24.44Q-381.90-27.09-388.84-29.05Q-395.78-31.01-403.99-31.01L-403.99-31.01Q-412.39-31.01-416.32-28.68Q-420.25-26.36-420.25-22.79L-420.25-22.79Q-420.25-19.96-417.83-18.18Q-415.41-16.40-410.57-14.94L-410.57-14.94L-400.62-11.75Q-382.99-6.18-373.59 2.54Q-364.18 11.26-364.18 26.24L-364.18 26.24Q-364.18 42.13-376.69 51.94Q-389.20 61.76-413.58 61.76L-413.58 61.76Q-422.16 61.76-429.56 60.34Q-436.96 58.93-442.43 56.23Q-447.91 53.54-451.02 49.52Q-454.12 45.50-454.12 40.21L-454.12 40.21Q-454.12 34.82-450.93 30.99Q-447.73 27.15-443.99 25.05L-443.99 25.05Q-438.78 29.16-431.20 32.17Q-423.63 35.19-414.68 35.19L-414.68 35.19Q-405.55 35.19-401.80 32.40Q-398.06 29.62-398.06 25.87L-398.06 25.87Q-398.06 22.13-401.03 20.17Q-403.99 18.20-409.47 16.29L-409.47 16.29ZM-254.43 13.27L-254.43 13.27Q-254.43 24.87-257.99 33.95Q-261.55 43.04-267.99 49.20Q-274.43 55.37-283.42 58.56Q-292.41 61.76-303.46 61.76L-303.46 61.76Q-314.51 61.76-323.46 58.38Q-332.41 55.00-338.89 48.75Q-345.37 42.49-348.93 33.50Q-352.50 24.50-352.50 13.27L-352.50 13.27Q-352.50 2.22-348.93-6.72Q-345.37-15.67-338.89-21.93Q-332.41-28.18-323.46-31.56Q-314.51-34.94-303.46-34.94L-303.46-34.94Q-292.41-34.94-283.42-31.47Q-274.43-28.00-267.99-21.74Q-261.55-15.49-257.99-6.54Q-254.43 2.41-254.43 13.27ZM-319.90 13.27L-319.90 13.27Q-319.90 24.69-315.52 30.76Q-311.13 36.83-303.28 36.83L-303.28 36.83Q-295.43 36.83-291.23 30.67Q-287.03 24.50-287.03 13.27L-287.03 13.27Q-287.03 2.04-291.32-4.03Q-295.61-10.10-303.46-10.10L-303.46-10.10Q-311.32-10.10-315.61-4.03Q-319.90 2.04-319.90 13.27ZM-207.13-5.17L-207.13 58.56Q-208.96 59.11-213.02 59.66Q-217.09 60.21-221.38 60.21L-221.38 60.21Q-225.49 60.21-228.77 59.66Q-232.06 59.11-234.30 57.42Q-236.53 55.73-237.77 52.85Q-239.00 49.98-239.00 45.32L-239.00 45.32L-239.00-10.83Q-239.00-15.12-237.40-18.23Q-235.80-21.33-232.79-23.71L-232.79-23.71Q-229.78-26.17-225.39-28.14Q-221.01-30.10-215.94-31.61Q-210.88-33.11-205.49-33.93Q-200.10-34.76-194.62-34.76L-194.62-34.76Q-185.67-34.76-180.42-31.29Q-175.17-27.82-175.17-19.96L-175.17-19.96Q-175.17-17.32-175.95-14.80Q-176.73-12.29-177.82-10.29L-177.82-10.29Q-181.75-10.29-185.86-9.92Q-189.97-9.55-193.89-8.78Q-197.82-8.00-201.29-7.18Q-204.76-6.36-207.13-5.17L-207.13-5.17ZM-130.34-0.70L-130.34 27.52Q-130.34 32.36-127.28 34.41Q-124.22 36.46-118.56 36.46L-118.56 36.46Q-115.73 36.46-112.77 36.01Q-109.80 35.55-107.51 34.82L-107.51 34.82Q-105.87 36.92-104.64 39.43Q-103.41 41.94-103.41 45.50L-103.41 45.50Q-103.41 52.63-108.75 57.10Q-114.09 61.57-127.60 61.57L-127.60 61.57Q-144.04 61.57-152.90 54.09Q-161.75 46.60-161.75 29.80L-161.75 29.80L-161.75-50.28Q-159.65-50.83-155.86-51.47Q-152.07-52.10-147.78-52.10L-147.78-52.10Q-139.56-52.10-134.95-49.23Q-130.34-46.35-130.34-37.04L-130.34-37.04L-130.34-25.08L-105.87-25.08Q-104.78-22.98-103.73-19.87Q-102.68-16.77-102.68-13.02L-102.68-13.02Q-102.68-6.45-105.60-3.57Q-108.52-0.70-113.36-0.70L-113.36-0.70L-130.34-0.70ZM-40.40 61.76L-40.40 61.76Q-51.45 61.76-60.90 58.65Q-70.35 55.55-77.34 49.39Q-84.32 43.22-88.39 33.86Q-92.45 24.50-92.45 11.99L-92.45 11.99Q-92.45-0.33-88.39-9.24Q-84.32-18.14-77.79-23.84Q-71.27-29.55-62.86-32.24Q-54.46-34.94-45.70-34.94L-45.70-34.94Q-35.75-34.94-27.62-31.97Q-19.49-29.00-13.60-23.75Q-7.71-18.50-4.43-11.20Q-1.14-3.89-1.14 4.69L-1.14 4.69Q-1.14 11.08-4.70 14.41Q-8.26 17.75-14.65 18.75L-14.65 18.75L-60.76 25.69Q-58.66 31.90-52.36 34.96Q-46.06 38.02-37.76 38.02L-37.76 38.02Q-30.09 38.02-23.28 36.05Q-16.48 34.09-12.19 31.44L-12.19 31.44Q-9.18 33.27-7.12 36.65Q-5.07 40.03-5.07 43.77L-5.07 43.77Q-5.07 52.17-12.92 56.28L-12.92 56.28Q-18.95 59.47-26.39 60.62Q-33.83 61.76-40.40 61.76ZM-45.70-11.75L-45.70-11.75Q-50.17-11.75-53.41-10.24Q-56.66-8.73-58.71-6.40Q-60.76-4.08-61.81-1.20Q-62.86 1.68-63.05 4.69L-63.05 4.69L-31.09-0.52Q-31.64-4.26-35.20-8.00Q-38.76-11.75-45.70-11.75ZM13.38-57.40L13.38-57.40Q13.38-64.52 18.17-69.36Q22.97-74.20 30.82-74.20L30.82-74.20Q38.67-74.20 43.42-69.36Q48.17-64.52 48.17-57.40L48.17-57.40Q48.17-50.28 43.42-45.39Q38.67-40.51 30.82-40.51L30.82-40.51Q22.97-40.51 18.17-45.39Q13.38-50.28 13.38-57.40ZM46.71-17.59L46.71 58.56Q44.61 58.93 40.59 59.57Q36.57 60.21 32.46 60.21L32.46 60.21Q28.35 60.21 25.07 59.66Q21.78 59.11 19.54 57.42Q17.30 55.73 16.12 52.85Q14.93 49.98 14.93 45.32L14.93 45.32L14.93-30.83Q17.03-31.19 21.00-31.83Q24.97-32.47 29.08-32.47L29.08-32.47Q33.19-32.47 36.48-31.93Q39.77-31.38 42.00-29.69Q44.24-28.00 45.47-25.12Q46.71-22.25 46.71-17.59L46.71-17.59ZM160.93 13.27L160.93 13.27Q160.93 24.87 157.37 33.95Q153.81 43.04 147.37 49.20Q140.94 55.37 131.94 58.56Q122.95 61.76 111.90 61.76L111.90 61.76Q100.85 61.76 91.90 58.38Q82.95 55.00 76.47 48.75Q69.99 42.49 66.43 33.50Q62.87 24.50 62.87 13.27L62.87 13.27Q62.87 2.22 66.43-6.72Q69.99-15.67 76.47-21.93Q82.95-28.18 91.90-31.56Q100.85-34.94 111.90-34.94L111.90-34.94Q122.95-34.94 131.94-31.47Q140.94-28.00 147.37-21.74Q153.81-15.49 157.37-6.54Q160.93 2.41 160.93 13.27ZM95.46 13.27L95.46 13.27Q95.46 24.69 99.85 30.76Q104.23 36.83 112.08 36.83L112.08 36.83Q119.93 36.83 124.14 30.67Q128.34 24.50 128.34 13.27L128.34 13.27Q128.34 2.04 124.04-4.03Q119.75-10.10 111.90-10.10L111.90-10.10Q104.05-10.10 99.76-4.03Q95.46 2.04 95.46 13.27ZM248.68-2.07L258.63-2.07Q266.49-2.07 270.69-5.67Q274.89-9.28 274.89-16.77L274.89-16.77Q274.89-23.89 270.50-27.73Q266.12-31.56 257.72-31.56L257.72-31.56Q254.71-31.56 252.74-31.47Q250.78-31.38 248.68-31.01L248.68-31.01L248.68-2.07ZM248.95 23.59L248.95 58.01Q246.85 58.56 242.47 59.11Q238.09 59.66 233.80 59.66L233.80 59.66Q229.51 59.66 226.22 59.02Q222.93 58.38 220.69 56.69Q218.46 55.00 217.32 52.03Q216.17 49.07 216.17 44.13L216.17 44.13L216.17-43.89Q216.17-47.81 218.32-49.96Q220.47-52.10 224.21-53.47L224.21-53.47Q230.60-55.76 238.73-56.76Q246.85-57.77 255.07-57.77L255.07-57.77Q280.91-57.77 294.56-46.72Q308.21-35.67 308.21-16.77L308.21-16.77Q308.21-7.64 305.29-0.24Q302.37 7.15 296.66 12.45Q290.96 17.75 282.28 20.67Q273.61 23.59 262.19 23.59L262.19 23.59L248.95 23.59ZM319.72-57.40L319.72-57.40Q319.72-64.52 324.51-69.36Q329.31-74.20 337.16-74.20L337.16-74.20Q345.01-74.20 349.76-69.36Q354.51-64.52 354.51-57.40L354.51-57.40Q354.51-50.28 349.76-45.39Q345.01-40.51 337.16-40.51L337.16-40.51Q329.31-40.51 324.51-45.39Q319.72-50.28 319.72-57.40ZM353.05-17.59L353.05 58.56Q350.95 58.93 346.93 59.57Q342.91 60.21 338.80 60.21L338.80 60.21Q334.69 60.21 331.41 59.66Q328.12 59.11 325.88 57.42Q323.64 55.73 322.46 52.85Q321.27 49.98 321.27 45.32L321.27 45.32L321.27-30.83Q323.37-31.19 327.34-31.83Q331.31-32.47 335.42-32.47L335.42-32.47Q339.53-32.47 342.82-31.93Q346.11-31.38 348.34-29.69Q350.58-28.00 351.81-25.12Q353.05-22.25 353.05-17.59L353.05-17.59ZM393.22 11.99L368.11-17.41Q369.57-24.53 374.00-29.00Q378.43-33.48 385.00-33.48L385.00-33.48Q391.21-33.48 394.55-30.46Q397.88-27.45 401.99-22.06L401.99-22.06L413.95-6.36L433.95-33.48Q444.26-33.48 450.24-29.83Q456.22-26.17 456.22-19.96L456.22-19.96Q456.22-17.50 455.54-15.58Q454.85-13.66 453.58-11.61Q452.30-9.55 450.24-6.91Q448.19-4.26 445.36-0.70L445.36-0.70L433.03 13.09L457.50 45.50Q456.59 52.63 451.93 56.74Q447.28 60.84 440.70 60.84L440.70 60.84Q433.58 60.66 429.38 56.69Q425.18 52.72 421.25 47.15L421.25 47.15L411.12 32.72L392.03 60.21Q391.12 60.21 390.03 60.30Q388.93 60.39 388.11 60.39L388.11 60.39Q378.61 60.39 373.64 56.46Q368.66 52.54 368.66 46.78L368.66 46.78Q368.66 42.31 370.81 38.84Q372.95 35.37 378.25 29.34L378.25 29.34L393.22 11.99Z"/></g>
<g transform="matrix(1 0 0 1 497.8445 493.7118)" style="" id="245630">
		
<path xml:space="preserve" font-family="Baloo" font-size="187" font-style="normal" font-weight="normal" style="stroke: rgb(60,54,118); stroke-width: 9; stroke-dasharray: none; stroke-linecap: butt; stroke-dashoffset: 0; stroke-linejoin: miter; stroke-miterlimit: 4; is-custom-font: none; font-file-url: none; fill: rgb(255,255,255); fill-rule: nonzero; opacity: 1; white-space: pre;" d="M-409.47 16.29L-417.32 13.64Q-425.54 10.81-432.25 7.93Q-438.96 5.05-443.85 0.95Q-448.73-3.16-451.43-8.87Q-454.12-14.58-454.12-22.79L-454.12-22.79Q-454.12-38.68-441.89-48.22Q-429.65-57.77-407.55-57.77L-407.55-57.77Q-399.52-57.77-392.63-56.62Q-385.73-55.48-380.76-53.15Q-375.78-50.83-372.99-47.17Q-370.21-43.52-370.21-38.68L-370.21-38.68Q-370.21-33.84-372.45-30.37Q-374.68-26.90-377.79-24.44L-377.79-24.44Q-381.90-27.09-388.84-29.05Q-395.78-31.01-403.99-31.01L-403.99-31.01Q-412.39-31.01-416.32-28.68Q-420.25-26.36-420.25-22.79L-420.25-22.79Q-420.25-19.96-417.83-18.18Q-415.41-16.40-410.57-14.94L-410.57-14.94L-400.62-11.75Q-382.99-6.18-373.59 2.54Q-364.18 11.26-364.18 26.24L-364.18 26.24Q-364.18 42.13-376.69 51.94Q-389.20 61.76-413.58 61.76L-413.58 61.76Q-422.16 61.76-429.56 60.34Q-436.96 58.93-442.43 56.23Q-447.91 53.54-451.02 49.52Q-454.12 45.50-454.12 40.21L-454.12 40.21Q-454.12 34.82-450.93 30.99Q-447.73 27.15-443.99 25.05L-443.99 25.05Q-438.78 29.16-431.20 32.17Q-423.63 35.19-414.68 35.19L-414.68 35.19Q-405.55 35.19-401.80 32.40Q-398.06 29.62-398.06 25.87L-398.06 25.87Q-398.06 22.13-401.03 20.17Q-403.99 18.20-409.47 16.29L-409.47 16.29ZM-254.43 13.27L-254.43 13.27Q-254.43 24.87-257.99 33.95Q-261.55 43.04-267.99 49.20Q-274.43 55.37-283.42 58.56Q-292.41 61.76-303.46 61.76L-303.46 61.76Q-314.51 61.76-323.46 58.38Q-332.41 55.00-338.89 48.75Q-345.37 42.49-348.93 33.50Q-352.50 24.50-352.50 13.27L-352.50 13.27Q-352.50 2.22-348.93-6.72Q-345.37-15.67-338.89-21.93Q-332.41-28.18-323.46-31.56Q-314.51-34.94-303.46-34.94L-303.46-34.94Q-292.41-34.94-283.42-31.47Q-274.43-28.00-267.99-21.74Q-261.55-15.49-257.99-6.54Q-254.43 2.41-254.43 13.27ZM-319.90 13.27L-319.90 13.27Q-319.90 24.69-315.52 30.76Q-311.13 36.83-303.28 36.83L-303.28 36.83Q-295.43 36.83-291.23 30.67Q-287.03 24.50-287.03 13.27L-287.03 13.27Q-287.03 2.04-291.32-4.03Q-295.61-10.10-303.46-10.10L-303.46-10.10Q-311.32-10.10-315.61-4.03Q-319.90 2.04-319.90 13.27ZM-207.13-5.17L-207.13 58.56Q-208.96 59.11-213.02 59.66Q-217.09 60.21-221.38 60.21L-221.38 60.21Q-225.49 60.21-228.77 59.66Q-232.06 59.11-234.30 57.42Q-236.53 55.73-237.77 52.85Q-239.00 49.98-239.00 45.32L-239.00 45.32L-239.00-10.83Q-239.00-15.12-237.40-18.23Q-235.80-21.33-232.79-23.71L-232.79-23.71Q-229.78-26.17-225.39-28.14Q-221.01-30.10-215.94-31.61Q-210.88-33.11-205.49-33.93Q-200.10-34.76-194.62-34.76L-194.62-34.76Q-185.67-34.76-180.42-31.29Q-175.17-27.82-175.17-19.96L-175.17-19.96Q-175.17-17.32-175.95-14.80Q-176.73-12.29-177.82-10.29L-177.82-10.29Q-181.75-10.29-185.86-9.92Q-189.97-9.55-193.89-8.78Q-197.82-8.00-201.29-7.18Q-204.76-6.36-207.13-5.17L-207.13-5.17ZM-130.34-0.70L-130.34 27.52Q-130.34 32.36-127.28 34.41Q-124.22 36.46-118.56 36.46L-118.56 36.46Q-115.73 36.46-112.77 36.01Q-109.80 35.55-107.51 34.82L-107.51 34.82Q-105.87 36.92-104.64 39.43Q-103.41 41.94-103.41 45.50L-103.41 45.50Q-103.41 52.63-108.75 57.10Q-114.09 61.57-127.60 61.57L-127.60 61.57Q-144.04 61.57-152.90 54.09Q-161.75 46.60-161.75 29.80L-161.75 29.80L-161.75-50.28Q-159.65-50.83-155.86-51.47Q-152.07-52.10-147.78-52.10L-147.78-52.10Q-139.56-52.10-134.95-49.23Q-130.34-46.35-130.34-37.04L-130.34-37.04L-130.34-25.08L-105.87-25.08Q-104.78-22.98-103.73-19.87Q-102.68-16.77-102.68-13.02L-102.68-13.02Q-102.68-6.45-105.60-3.57Q-108.52-0.70-113.36-0.70L-113.36-0.70L-130.34-0.70ZM-40.40 61.76L-40.40 61.76Q-51.45 61.76-60.90 58.65Q-70.35 55.55-77.34 49.39Q-84.32 43.22-88.39 33.86Q-92.45 24.50-92.45 11.99L-92.45 11.99Q-92.45-0.33-88.39-9.24Q-84.32-18.14-77.79-23.84Q-71.27-29.55-62.86-32.24Q-54.46-34.94-45.70-34.94L-45.70-34.94Q-35.75-34.94-27.62-31.97Q-19.49-29.00-13.60-23.75Q-7.71-18.50-4.43-11.20Q-1.14-3.89-1.14 4.69L-1.14 4.69Q-1.14 11.08-4.70 14.41Q-8.26 17.75-14.65 18.75L-14.65 18.75L-60.76 25.69Q-58.66 31.90-52.36 34.96Q-46.06 38.02-37.76 38.02L-37.76 38.02Q-30.09 38.02-23.28 36.05Q-16.48 34.09-12.19 31.44L-12.19 31.44Q-9.18 33.27-7.12 36.65Q-5.07 40.03-5.07 43.77L-5.07 43.77Q-5.07 52.17-12.92 56.28L-12.92 56.28Q-18.95 59.47-26.39 60.62Q-33.83 61.76-40.40 61.76ZM-45.70-11.75L-45.70-11.75Q-50.17-11.75-53.41-10.24Q-56.66-8.73-58.71-6.40Q-60.76-4.08-61.81-1.20Q-62.86 1.68-63.05 4.69L-63.05 4.69L-31.09-0.52Q-31.64-4.26-35.20-8.00Q-38.76-11.75-45.70-11.75ZM13.38-57.40L13.38-57.40Q13.38-64.52 18.17-69.36Q22.97-74.20 30.82-74.20L30.82-74.20Q38.67-74.20 43.42-69.36Q48.17-64.52 48.17-57.40L48.17-57.40Q48.17-50.28 43.42-45.39Q38.67-40.51 30.82-40.51L30.82-40.51Q22.97-40.51 18.17-45.39Q13.38-50.28 13.38-57.40ZM46.71-17.59L46.71 58.56Q44.61 58.93 40.59 59.57Q36.57 60.21 32.46 60.21L32.46 60.21Q28.35 60.21 25.07 59.66Q21.78 59.11 19.54 57.42Q17.30 55.73 16.12 52.85Q14.93 49.98 14.93 45.32L14.93 45.32L14.93-30.83Q17.03-31.19 21.00-31.83Q24.97-32.47 29.08-32.47L29.08-32.47Q33.19-32.47 36.48-31.93Q39.77-31.38 42.00-29.69Q44.24-28.00 45.47-25.12Q46.71-22.25 46.71-17.59L46.71-17.59ZM160.93 13.27L160.93 13.27Q160.93 24.87 157.37 33.95Q153.81 43.04 147.37 49.20Q140.94 55.37 131.94 58.56Q122.95 61.76 111.90 61.76L111.90 61.76Q100.85 61.76 91.90 58.38Q82.95 55.00 76.47 48.75Q69.99 42.49 66.43 33.50Q62.87 24.50 62.87 13.27L62.87 13.27Q62.87 2.22 66.43-6.72Q69.99-15.67 76.47-21.93Q82.95-28.18 91.90-31.56Q100.85-34.94 111.90-34.94L111.90-34.94Q122.95-34.94 131.94-31.47Q140.94-28.00 147.37-21.74Q153.81-15.49 157.37-6.54Q160.93 2.41 160.93 13.27ZM95.46 13.27L95.46 13.27Q95.46 24.69 99.85 30.76Q104.23 36.83 112.08 36.83L112.08 36.83Q119.93 36.83 124.14 30.67Q128.34 24.50 128.34 13.27L128.34 13.27Q128.34 2.04 124.04-4.03Q119.75-10.10 111.90-10.10L111.90-10.10Q104.05-10.10 99.76-4.03Q95.46 2.04 95.46 13.27ZM248.68-2.07L258.63-2.07Q266.49-2.07 270.69-5.67Q274.89-9.28 274.89-16.77L274.89-16.77Q274.89-23.89 270.50-27.73Q266.12-31.56 257.72-31.56L257.72-31.56Q254.71-31.56 252.74-31.47Q250.78-31.38 248.68-31.01L248.68-31.01L248.68-2.07ZM248.95 23.59L248.95 58.01Q246.85 58.56 242.47 59.11Q238.09 59.66 233.80 59.66L233.80 59.66Q229.51 59.66 226.22 59.02Q222.93 58.38 220.69 56.69Q218.46 55.00 217.32 52.03Q216.17 49.07 216.17 44.13L216.17 44.13L216.17-43.89Q216.17-47.81 218.32-49.96Q220.47-52.10 224.21-53.47L224.21-53.47Q230.60-55.76 238.73-56.76Q246.85-57.77 255.07-57.77L255.07-57.77Q280.91-57.77 294.56-46.72Q308.21-35.67 308.21-16.77L308.21-16.77Q308.21-7.64 305.29-0.24Q302.37 7.15 296.66 12.45Q290.96 17.75 282.28 20.67Q273.61 23.59 262.19 23.59L262.19 23.59L248.95 23.59ZM319.72-57.40L319.72-57.40Q319.72-64.52 324.51-69.36Q329.31-74.20 337.16-74.20L337.16-74.20Q345.01-74.20 349.76-69.36Q354.51-64.52 354.51-57.40L354.51-57.40Q354.51-50.28 349.76-45.39Q345.01-40.51 337.16-40.51L337.16-40.51Q329.31-40.51 324.51-45.39Q319.72-50.28 319.72-57.40ZM353.05-17.59L353.05 58.56Q350.95 58.93 346.93 59.57Q342.91 60.21 338.80 60.21L338.80 60.21Q334.69 60.21 331.41 59.66Q328.12 59.11 325.88 57.42Q323.64 55.73 322.46 52.85Q321.27 49.98 321.27 45.32L321.27 45.32L321.27-30.83Q323.37-31.19 327.34-31.83Q331.31-32.47 335.42-32.47L335.42-32.47Q339.53-32.47 342.82-31.93Q346.11-31.38 348.34-29.69Q350.58-28.00 351.81-25.12Q353.05-22.25 353.05-17.59L353.05-17.59ZM393.22 11.99L368.11-17.41Q369.57-24.53 374.00-29.00Q378.43-33.48 385.00-33.48L385.00-33.48Q391.21-33.48 394.55-30.46Q397.88-27.45 401.99-22.06L401.99-22.06L413.95-6.36L433.95-33.48Q444.26-33.48 450.24-29.83Q456.22-26.17 456.22-19.96L456.22-19.96Q456.22-17.50 455.54-15.58Q454.85-13.66 453.58-11.61Q452.30-9.55 450.24-6.91Q448.19-4.26 445.36-0.70L445.36-0.70L433.03 13.09L457.50 45.50Q456.59 52.63 451.93 56.74Q447.28 60.84 440.70 60.84L440.70 60.84Q433.58 60.66 429.38 56.69Q425.18 52.72 421.25 47.15L421.25 47.15L411.12 32.72L392.03 60.21Q391.12 60.21 390.03 60.30Q388.93 60.39 388.11 60.39L388.11 60.39Q378.61 60.39 373.64 56.46Q368.66 52.54 368.66 46.78L368.66 46.78Q368.66 42.31 370.81 38.84Q372.95 35.37 378.25 29.34L378.25 29.34L393.22 11.99Z"/></g>
</svg>